<svg width="30" height="34" viewBox="0 0 30 34" fill="none" xmlns="http://www.w3.org/2000/svg">
<g filter="url(#filter0_d_2495_25823)">
<path d="M22.714 7.29202C21.716 6.29067 20.5316 5.49444 19.2276 4.94827C17.8902 4.38635 16.4537 4.09844 15.003 4.10159H14.9532C12.0323 4.11331 9.29892 5.25588 7.254 7.32131C5.20615 9.38674 4.08994 12.1289 4.10165 15.0498C4.11044 16.8164 4.5499 18.5713 5.37607 20.1211L5.5079 20.3672V24.4922H9.6329L9.879 24.6241C11.4288 25.4502 13.1837 25.8897 14.9503 25.8985H15.0001C17.9005 25.8985 20.6251 24.7793 22.6788 22.7461C24.7413 20.7012 25.8868 17.9678 25.9044 15.0498C25.9102 13.5674 25.6261 12.1319 25.0577 10.7783C24.5111 9.47459 23.715 8.29027 22.714 7.29202ZM9.14072 16.4063C8.77273 16.3988 8.42234 16.2473 8.16475 15.9844C7.90716 15.7215 7.76288 15.3681 7.76288 15C7.76288 14.632 7.90716 14.2786 8.16475 14.0157C8.42234 13.7527 8.77273 13.6013 9.14072 13.5938C9.50871 13.6013 9.85909 13.7527 10.1167 14.0157C10.3743 14.2786 10.5186 14.632 10.5186 15C10.5186 15.3681 10.3743 15.7215 10.1167 15.9844C9.85909 16.2473 9.50871 16.3988 9.14072 16.4063ZM15.0001 16.4063C14.6321 16.3988 14.2817 16.2473 14.0241 15.9844C13.7665 15.7215 13.6223 15.3681 13.6223 15C13.6223 14.632 13.7665 14.2786 14.0241 14.0157C14.2817 13.7527 14.6321 13.6013 15.0001 13.5938C15.3681 13.6013 15.7185 13.7527 15.9761 14.0157C16.2337 14.2786 16.3779 14.632 16.3779 15C16.3779 15.3681 16.2337 15.7215 15.9761 15.9844C15.7185 16.2473 15.3681 16.3988 15.0001 16.4063ZM20.8595 16.4063C20.4915 16.3988 20.1411 16.2473 19.8835 15.9844C19.6259 15.7215 19.4816 15.3681 19.4816 15C19.4816 14.632 19.6259 14.2786 19.8835 14.0157C20.1411 13.7527 20.4915 13.6013 20.8595 13.5938C21.2275 13.6013 21.5778 13.7527 21.8354 14.0157C22.093 14.2786 22.2373 14.632 22.2373 15C22.2373 15.3681 22.093 15.7215 21.8354 15.9844C21.5778 16.2473 21.2275 16.3988 20.8595 16.4063Z" fill="black" fill-opacity="0.5" shape-rendering="crispEdges"/>
<path d="M9.13086 13.0938C8.63206 13.1039 8.15678 13.3097 7.80762 13.666C7.45855 14.0224 7.2627 14.5012 7.2627 15C7.2627 15.4988 7.45856 15.9776 7.80762 16.334C8.15678 16.6903 8.63206 16.8961 9.13086 16.9062H9.15137C9.65001 16.896 10.1246 16.6902 10.4736 16.334C10.8227 15.9776 11.0186 15.4989 11.0186 15C11.0185 14.5011 10.8228 14.0224 10.4736 13.666C10.1246 13.3098 9.65001 13.104 9.15137 13.0938H9.13086ZM14.9902 13.0938C14.4914 13.1039 14.0162 13.3097 13.667 13.666C13.3179 14.0224 13.1221 14.5012 13.1221 15C13.1221 15.4988 13.3179 15.9776 13.667 16.334C14.0162 16.6903 14.4914 16.8961 14.9902 16.9062H15.0107C15.5094 16.896 15.9839 16.6902 16.333 16.334C16.6821 15.9776 16.8779 15.4989 16.8779 15C16.8779 14.5011 16.6821 14.0224 16.333 13.666C15.9839 13.3098 15.5094 13.104 15.0107 13.0938H14.9902ZM20.8496 13.0938C20.3508 13.1039 19.8755 13.3097 19.5264 13.666C19.1773 14.0224 18.9815 14.5012 18.9814 15C18.9814 15.4988 19.1773 15.9776 19.5264 16.334C19.8755 16.6903 20.3508 16.8961 20.8496 16.9062H20.8701C21.3688 16.896 21.8433 16.6902 22.1924 16.334C22.5415 15.9776 22.7373 15.4989 22.7373 15C22.7373 14.5011 22.5415 14.0224 22.1924 13.666C21.8433 13.3098 21.3688 13.104 20.8701 13.0938H20.8496ZM6.00781 20.2422L5.94824 20.1309L5.81641 19.8848C5.02931 18.4078 4.60995 16.7328 4.60156 15.0469C4.59062 12.2579 5.65587 9.64414 7.60938 7.67383V7.67285C9.56024 5.7025 12.1663 4.61279 14.9551 4.60156H15.0039C16.2149 4.59894 17.4158 4.80897 18.5518 5.2207L19.0342 5.40918C20.2777 5.93005 21.4076 6.68963 22.3594 7.64453L22.3613 7.64648C23.1966 8.47955 23.882 9.44858 24.3896 10.5107L24.5967 10.9717C25.1386 12.2623 25.4098 13.6311 25.4043 15.0469C25.3875 17.833 24.2949 20.4394 22.3271 22.3906C20.3674 24.3308 17.7691 25.3984 15 25.3984H14.9531C13.2668 25.39 11.5906 24.9701 10.1133 24.1826L9.86914 24.0518L9.75879 23.9922H6.00781V20.2422Z" stroke="black" shape-rendering="crispEdges"/>
</g>
<path d="M19.4531 15C19.4531 15.373 19.6013 15.7306 19.865 15.9944C20.1287 16.2581 20.4864 16.4062 20.8594 16.4062C21.2323 16.4062 21.59 16.2581 21.8537 15.9944C22.1175 15.7306 22.2656 15.373 22.2656 15C22.2656 14.627 22.1175 14.2694 21.8537 14.0056C21.59 13.7419 21.2323 13.5938 20.8594 13.5938C20.4864 13.5938 20.1287 13.7419 19.865 14.0056C19.6013 14.2694 19.4531 14.627 19.4531 15ZM7.73438 15C7.73438 15.373 7.88253 15.7306 8.14626 15.9944C8.40998 16.2581 8.76766 16.4062 9.14062 16.4062C9.51359 16.4062 9.87127 16.2581 10.135 15.9944C10.3987 15.7306 10.5469 15.373 10.5469 15C10.5469 14.627 10.3987 14.2694 10.135 14.0056C9.87127 13.7419 9.51359 13.5938 9.14062 13.5938C8.76766 13.5938 8.40998 13.7419 8.14626 14.0056C7.88253 14.2694 7.73438 14.627 7.73438 15Z" fill="white"/>
<path d="M27.1056 9.91406C26.4435 8.34082 25.4943 6.92871 24.2843 5.71582C23.0828 4.50998 21.6565 3.55146 20.0861 2.89453C18.4748 2.21777 16.7638 1.875 15.0002 1.875H14.9416C13.1662 1.88379 11.4465 2.23535 9.82927 2.92676C8.27232 3.59043 6.85936 4.55065 5.66911 5.75391C4.47087 6.96387 3.53044 8.37012 2.88005 9.9375C2.20622 11.5605 1.86638 13.2861 1.87517 15.0615C1.88511 17.0961 2.36645 19.1007 3.28142 20.918V25.3711C3.28142 25.7285 3.4234 26.0713 3.67614 26.324C3.92887 26.5768 4.27165 26.7188 4.62907 26.7188H9.08513C10.9024 27.6337 12.907 28.1151 14.9416 28.125H15.0031C16.758 28.125 18.4601 27.7852 20.0627 27.1201C21.6251 26.471 23.0462 25.5237 24.2463 24.3311C25.4562 23.1328 26.4084 21.7324 27.0734 20.1709C27.7648 18.5537 28.1164 16.834 28.1252 15.0586C28.134 13.2744 27.7882 11.543 27.1056 9.91406ZM22.6789 22.7461C20.6252 24.7793 17.9006 25.8984 15.0002 25.8984H14.9504C13.1838 25.8896 11.4289 25.4502 9.87907 24.624L9.63298 24.4922H5.50798V20.3672L5.37614 20.1211C4.54997 18.5713 4.11052 16.8164 4.10173 15.0498C4.09001 12.1289 5.20622 9.38672 7.25407 7.32129C9.29899 5.25586 12.0324 4.11328 14.9533 4.10156H15.0031C16.4679 4.10156 17.8888 4.38574 19.2277 4.94824C20.5343 5.49609 21.7062 6.28418 22.714 7.29199C23.7189 8.29688 24.5099 9.47168 25.0578 10.7783C25.6261 12.1318 25.9103 13.5674 25.9045 15.0498C25.8869 17.9678 24.7414 20.7012 22.6789 22.7461Z" fill="white"/>
<path d="M13.5938 15C13.5938 15.373 13.7419 15.7306 14.0056 15.9944C14.2694 16.2581 14.627 16.4062 15 16.4062C15.373 16.4062 15.7306 16.2581 15.9944 15.9944C16.2581 15.7306 16.4062 15.373 16.4062 15C16.4062 14.627 16.2581 14.2694 15.9944 14.0056C15.7306 13.7419 15.373 13.5938 15 13.5938C14.627 13.5938 14.2694 13.7419 14.0056 14.0056C13.7419 14.2694 13.5938 14.627 13.5938 15Z" fill="white"/>
<defs>
<filter id="filter0_d_2495_25823" x="0.101562" y="4.10156" width="29.8027" height="29.7969" filterUnits="userSpaceOnUse" color-interpolation-filters="sRGB">
<feFlood flood-opacity="0" result="BackgroundImageFix"/>
<feColorMatrix in="SourceAlpha" type="matrix" values="0 0 0 0 0 0 0 0 0 0 0 0 0 0 0 0 0 0 127 0" result="hardAlpha"/>
<feOffset dy="4"/>
<feGaussianBlur stdDeviation="2"/>
<feComposite in2="hardAlpha" operator="out"/>
<feColorMatrix type="matrix" values="0 0 0 0 0 0 0 0 0 0 0 0 0 0 0 0 0 0 0.25 0"/>
<feBlend mode="normal" in2="BackgroundImageFix" result="effect1_dropShadow_2495_25823"/>
<feBlend mode="normal" in="SourceGraphic" in2="effect1_dropShadow_2495_25823" result="shape"/>
</filter>
</defs>
</svg>
